<?xml version="1.0" encoding="utf-8"?>
<!-- Generator: Adobe Illustrator 28.0.0, SVG Export Plug-In . SVG Version: 6.00 Build 0)  -->
<svg version="1.1" id="Capa_1" xmlns="http://www.w3.org/2000/svg" xmlns:xlink="http://www.w3.org/1999/xlink" x="0px" y="0px"
	 viewBox="0 0 4741.8 3747.1" style="enable-background:new 0 0 4741.8 3747.1;" xml:space="preserve">
<style type="text/css">
	.st0{fill:url(#SVGID_1_);}
	.st1{fill:url(#SVGID_00000145056568387437193160000018273252343486342482_);}
	.st2{fill:url(#SVGID_00000041999899851462042440000002322000365343199174_);}
	.st3{fill:url(#SVGID_00000051374745904930077740000014443551982667238338_);}
	.st4{fill:#FFFFFF;}
</style>
<g>
	<linearGradient id="SVGID_1_" gradientUnits="userSpaceOnUse" x1="1982.8221" y1="1881.4049" x2="437.8903" y2="1881.4049">
		<stop  offset="0" style="stop-color:#CCFD02"/>
		<stop  offset="0.4709" style="stop-color:#FFF200"/>
		<stop  offset="1" style="stop-color:#CCFD02"/>
	</linearGradient>
	<path class="st0" d="M1154.7,3035l639.3-964.9l-89.4-133.7l-104.4,157.6L839,511.7l-207.5,98.4l687.8,1060.2l-719.5,1018.8H1154.7z"
		/>
	<linearGradient id="SVGID_00000086671740005632246990000015585587972806689798_" gradientUnits="userSpaceOnUse" x1="2748.9126" y1="1877.469" x2="1588.5627" y2="1877.469">
		<stop  offset="0" style="stop-color:#CCFD02"/>
		<stop  offset="0.4709" style="stop-color:#FFF200"/>
		<stop  offset="1" style="stop-color:#CCFD02"/>
	</linearGradient>
	<polygon style="fill:url(#SVGID_00000086671740005632246990000015585587972806689798_);" points="2520,233.6 2395.7,454.3 
		2464.9,563.3 2082.3,1224.9 1834.6,885.5 1399,1574.5 2447.6,3019.9 2748.9,3019.9 1760.1,1667.8 2091.8,1138.5 2631.7,2040.3 
		2932.8,2040.3 2392.8,114.2 	"/>
	<linearGradient id="SVGID_00000054979208017033922570000008610917211011465019_" gradientUnits="userSpaceOnUse" x1="3472.3035" y1="1669.1772" x2="2215.665" y2="1669.1772">
		<stop  offset="0" style="stop-color:#CCFD02"/>
		<stop  offset="0.4709" style="stop-color:#FFF200"/>
		<stop  offset="1" style="stop-color:#CCFD02"/>
	</linearGradient>
	<polygon style="fill:url(#SVGID_00000054979208017033922570000008610917211011465019_);" points="3020.1,1434.7 3472.3,740.6 
		3205.5,740.6 2680.8,1461.7 3378.9,2470.4 3619.9,2470.4 3216.6,1845.1 	"/>
	<linearGradient id="SVGID_00000054977820384349511250000018105013380472843847_" gradientUnits="userSpaceOnUse" x1="4693.9062" y1="1783.709" x2="3284.1907" y2="1783.709">
		<stop  offset="0" style="stop-color:#CCFD02"/>
		<stop  offset="0.4709" style="stop-color:#FFF200"/>
		<stop  offset="1" style="stop-color:#CCFD02"/>
	</linearGradient>
	<polygon style="fill:url(#SVGID_00000054977820384349511250000018105013380472843847_);" points="4156.4,909.6 4115.8,745.6 
		3872.7,745.6 3284.2,1813 3833.5,1813 3968.2,2251.8 3985.7,2321.8 3985.8,2321.8 3985.8,2321.8 	"/>
	<path class="st4" d="M1030.9,1161.3v157.2H809.3v-157.2H1030.9z M809.3,1137.3h221.6V912H809.3V1137.3z M1030.9,2753.4H809.3v-942
		h221.6V2753.4z M1030.9,805.6V582.3H809.3v223.3H1030.9z"/>
	<path class="st4" d="M1388,2802.2V582.3h221.6v2219.9H1388z"/>
	<path class="st4" d="M1950.1,2802.2V582.3h845v225.3h-623.4v591.8h539.3v224.8h-539.3v954h-221.6V2802.2z"/>
	<path class="st4" d="M2964.1,2802.2V582.3h221.6v2219.9H2964.1z"/>
	<path class="st4" d="M3397.8,2802.2V582.3H4173v225.3h-553.7v591.8h474.5v224.8h-474.5v954H3397.8z"/>
	<path class="st4" d="M4297.6,2752.7h221.6v-942.9h-221.6V2752.7z M4297.6,1463.2h221.6V912h-221.6V1463.2z M4297.6,1136.7h221.6
		V582.3h-221.6V1136.7z"/>
</g>
</svg>
